<svg width="37" height="28" viewBox="0 0 37 28" fill="none" xmlns="http://www.w3.org/2000/svg">
<path fill-rule="evenodd" clip-rule="evenodd" d="M36.1459 1.76341C36.5676 1.40666 36.6201 0.775686 36.2634 0.354079C35.9066 -0.0675277 35.2757 -0.120109 34.8541 0.236635L34.493 0.542189C34.3623 0.652723 34.2671 0.789584 34.2085 0.938387C34.0521 0.971527 33.9014 1.04277 33.7707 1.1533L33.0485 1.76441C32.9179 1.87495 32.8227 2.01181 32.7641 2.16061C32.6076 2.19375 32.4569 2.26499 32.3263 2.37552L31.6041 2.98663C31.4734 3.09717 31.3782 3.23403 31.3196 3.38284C31.1632 3.41598 31.0125 3.48721 30.8818 3.59774L30.1596 4.20886C30.029 4.31939 29.9338 4.45625 29.8752 4.60506C29.7188 4.6382 29.568 4.70943 29.4374 4.81997L28.7152 5.43108C28.5845 5.54161 28.4893 5.67848 28.4308 5.82728C28.2743 5.86042 28.1236 5.93166 27.9929 6.04219L27.2707 6.6533C27.1401 6.76384 27.0449 6.9007 26.9863 7.0495C26.8299 7.08264 26.6791 7.15388 26.5485 7.26441L25.8263 7.87552C25.6956 7.98606 25.6004 8.12292 25.5419 8.27173C25.3854 8.30487 25.2347 8.3761 25.1041 8.48663L24.3818 9.09775C24.2512 9.20828 24.156 9.34514 24.0974 9.49395C23.941 9.52709 23.7902 9.59832 23.6596 9.70886L22.9374 10.32C22.8068 10.4305 22.7116 10.5674 22.653 10.7162C22.6006 10.7273 22.5488 10.7426 22.4982 10.7623C22.4587 10.7476 22.4184 10.7356 22.3777 10.7261C22.3197 10.5818 22.227 10.449 22.1008 10.3408L21.4008 9.74077C21.2746 9.63257 21.1291 9.56134 20.9777 9.52607C20.9197 9.3818 20.827 9.24896 20.7008 9.14076L20.0008 8.54076C19.8746 8.43257 19.7291 8.36134 19.5777 8.32607C19.5197 8.1818 19.427 8.04896 19.3008 7.94076L18.6008 7.34076C18.4746 7.23257 18.3291 7.16134 18.1777 7.12607C18.1197 6.9818 18.027 6.84896 17.9008 6.74076L17.2008 6.14076C17.0746 6.03257 16.9291 5.96134 16.7777 5.92607C16.7197 5.7818 16.627 5.64896 16.5008 5.54076L16.1508 5.24076C15.7541 4.9007 15.1624 4.92343 14.7929 5.29291L14.4304 5.65541C14.2979 5.78792 14.2103 5.94836 14.1678 6.11778C13.9983 6.16036 13.8379 6.24791 13.7054 6.38041L12.9804 7.10541C12.8479 7.23792 12.7603 7.39836 12.7178 7.56778C12.5483 7.61036 12.3879 7.69791 12.2554 7.83041L11.5304 8.55541C11.3979 8.68792 11.3103 8.84836 11.2678 9.01778C11.0983 9.06037 10.9379 9.14791 10.8054 9.28041L10.0804 10.0054C9.94789 10.1379 9.86034 10.2984 9.81775 10.4678C9.64834 10.5104 9.4879 10.5979 9.35539 10.7304L8.63039 11.4554C8.49789 11.5879 8.41034 11.7484 8.36775 11.9178C8.19834 11.9604 8.0379 12.0479 7.90539 12.1804L7.18039 12.9054C7.04789 13.0379 6.96034 13.1984 6.91775 13.3678C6.74834 13.4104 6.5879 13.4979 6.45539 13.6304L5.73039 14.3554C5.59789 14.4879 5.51034 14.6484 5.46775 14.8178C5.29834 14.8604 5.1379 14.9479 5.00539 15.0804L4.28039 15.8054C4.14789 15.9379 4.06034 16.0984 4.01775 16.2678C3.84834 16.3104 3.6879 16.3979 3.55539 16.5304L2.83039 17.2554C2.69789 17.3879 2.61034 17.5484 2.56775 17.7178C2.39834 17.7604 2.2379 17.8479 2.10539 17.9804L1.38039 18.7054C1.24789 18.8379 1.16034 18.9984 1.11775 19.1678C0.948338 19.2104 0.787898 19.2979 0.655393 19.4304L0.292893 19.7929C-0.0976311 20.1834 -0.0976311 20.8166 0.292893 21.2071C0.683418 21.5977 1.31658 21.5977 1.70711 21.2071L2.06961 20.8446C2.20211 20.7121 2.28966 20.5517 2.33224 20.3823C2.50166 20.3397 2.6621 20.2521 2.79461 20.1196L3.51961 19.3946C3.65211 19.2621 3.73966 19.1017 3.78224 18.9323C3.95166 18.8897 4.1121 18.8021 4.24461 18.6696L4.96961 17.9446C5.10211 17.8121 5.18966 17.6517 5.23224 17.4823C5.40166 17.4397 5.5621 17.3521 5.69461 17.2196L6.41961 16.4946C6.55211 16.3621 6.63966 16.2017 6.68224 16.0323C6.85166 15.9897 7.0121 15.9021 7.14461 15.7696L7.86961 15.0446C8.00211 14.9121 8.08966 14.7517 8.13224 14.5823C8.30166 14.5397 8.4621 14.4521 8.59461 14.3196L9.31961 13.5946C9.45211 13.4621 9.53966 13.3017 9.58224 13.1323C9.75166 13.0897 9.9121 13.0021 10.0446 12.8696L10.7696 12.1446C10.9021 12.0121 10.9897 11.8517 11.0322 11.6823C11.2017 11.6397 11.3621 11.5521 11.4946 11.4196L12.2196 10.6946C12.3521 10.5621 12.4397 10.4017 12.4822 10.2323C12.6517 10.1897 12.8121 10.1021 12.9446 9.96963L13.6696 9.24463C13.8021 9.11212 13.8897 8.95168 13.9322 8.78227C14.1017 8.73968 14.2621 8.65213 14.3946 8.51963L15.1196 7.79463C15.2521 7.66212 15.3397 7.50168 15.3822 7.33227C15.4484 7.31564 15.5131 7.29217 15.5754 7.26184C15.591 7.26627 15.6066 7.27031 15.6223 7.27397C15.6803 7.41825 15.773 7.55108 15.8992 7.65928L16.5992 8.25928C16.7254 8.36748 16.8709 8.4387 17.0223 8.47397C17.0803 8.61825 17.173 8.75108 17.2992 8.85928L17.9992 9.45928C18.1254 9.56748 18.2709 9.6387 18.4223 9.67397C18.4803 9.81825 18.573 9.95108 18.6992 10.0593L19.3992 10.6593C19.5254 10.7675 19.6709 10.8387 19.8223 10.874C19.8803 11.0182 19.973 11.1511 20.0992 11.2593L20.7992 11.8593C20.9254 11.9675 21.0709 12.0387 21.2223 12.074C21.2803 12.2182 21.373 12.3511 21.4992 12.4593L21.8492 12.7593C22.2219 13.0787 22.7713 13.0804 23.1459 12.7634L23.5071 12.4579C23.6377 12.3473 23.7329 12.2105 23.7915 12.0617C23.9479 12.0285 24.0986 11.9573 24.2293 11.8467L24.9515 11.2356C25.0821 11.1251 25.1773 10.9882 25.2359 10.8394C25.3924 10.8063 25.5431 10.7351 25.6737 10.6245L26.3959 10.0134C26.5266 9.90287 26.6218 9.76602 26.6804 9.61721C26.8368 9.58407 26.9875 9.51283 27.1182 9.4023L27.8404 8.79118C27.971 8.68065 28.0662 8.54379 28.1248 8.39499C28.2812 8.36185 28.432 8.29061 28.5626 8.18007L29.2848 7.56896C29.4155 7.45843 29.5107 7.32157 29.5692 7.17277C29.7257 7.13963 29.8764 7.06839 30.0071 6.95785L30.7293 6.34674C30.8599 6.23621 30.9551 6.09935 31.0137 5.95054C31.1701 5.9174 31.3209 5.84616 31.4515 5.73563L32.1737 5.12452C32.3044 5.01398 32.3996 4.87713 32.4581 4.72832C32.6146 4.69518 32.7653 4.62394 32.8959 4.51341L33.6182 3.9023C33.7488 3.79176 33.844 3.6549 33.9026 3.5061C34.059 3.47296 34.2098 3.40172 34.3404 3.29118L35.0626 2.68007C35.1932 2.56954 35.2884 2.43268 35.347 2.28388C35.5035 2.25073 35.6542 2.1795 35.7848 2.06896L36.1459 1.76341ZM12.5 26C11.9477 26 11.5 26.4477 11.5 27C11.5 27.5523 11.9477 28 12.5 28H13C13.1821 28 13.3529 27.9513 13.5 27.8662C13.6471 27.9513 13.8179 28 14 28H15C15.1821 28 15.3529 27.9513 15.5 27.8662C15.6471 27.9513 15.8179 28 16 28H17C17.1821 28 17.3529 27.9513 17.5 27.8662C17.6471 27.9513 17.8179 28 18 28H19C19.1821 28 19.3529 27.9513 19.5 27.8662C19.6471 27.9513 19.8179 28 20 28H21C21.1821 28 21.3529 27.9513 21.5 27.8662C21.6471 27.9513 21.8179 28 22 28H23C23.1821 28 23.3529 27.9513 23.5 27.8662C23.6471 27.9513 23.8179 28 24 28H25C25.1821 28 25.3529 27.9513 25.5 27.8662C25.6471 27.9513 25.8179 28 26 28H27C27.1821 28 27.3529 27.9513 27.5 27.8662C27.6471 27.9513 27.8179 28 28 28H29C29.1821 28 29.3529 27.9513 29.5 27.8662C29.6471 27.9513 29.8179 28 30 28H31C31.1821 28 31.3529 27.9513 31.5 27.8662C31.6471 27.9513 31.8179 28 32 28H33C33.1821 28 33.3529 27.9513 33.5 27.8662C33.6471 27.9513 33.8179 28 34 28H34.5C35.0523 28 35.5 27.5523 35.5 27C35.5 26.4477 35.0523 26 34.5 26H34C33.8179 26 33.6471 26.0487 33.5 26.1338C33.3529 26.0487 33.1821 26 33 26H32C31.8179 26 31.6471 26.0487 31.5 26.1338C31.3529 26.0487 31.1821 26 31 26H30C29.8179 26 29.6471 26.0487 29.5 26.1338C29.3529 26.0487 29.1821 26 29 26H28C27.8179 26 27.6471 26.0487 27.5 26.1338C27.3529 26.0487 27.1821 26 27 26H26C25.8179 26 25.6471 26.0487 25.5 26.1338C25.3529 26.0487 25.1821 26 25 26H24C23.8179 26 23.6471 26.0487 23.5 26.1338C23.3529 26.0487 23.1821 26 23 26H22C21.8179 26 21.6471 26.0487 21.5 26.1338C21.3529 26.0487 21.1821 26 21 26H20C19.8179 26 19.6471 26.0487 19.5 26.1338C19.3529 26.0487 19.1821 26 19 26H18C17.8179 26 17.6471 26.0487 17.5 26.1338C17.3529 26.0487 17.1821 26 17 26H16C15.8179 26 15.6471 26.0487 15.5 26.1338C15.3529 26.0487 15.1821 26 15 26H14C13.8179 26 13.6471 26.0487 13.5 26.1338C13.3529 26.0487 13.1821 26 13 26H12.5Z" fill="#2561B6"/>
</svg>
