<svg width="34" height="40" viewBox="0 0 34 40" fill="none" xmlns="http://www.w3.org/2000/svg">
<path fill-rule="evenodd" clip-rule="evenodd" d="M4.40368 0.898441L4.44863 0.898444H24.5399C24.7961 0.898444 25.0426 0.996829 25.2285 1.17329L33.559 9.08378C33.7578 9.27258 33.8704 9.53474 33.8704 9.80893V38.4845C33.8704 39.0367 33.4227 39.4845 32.8704 39.4845H4.44863C3.50638 39.4845 2.69851 39.3505 2.03247 39.0305C1.33945 38.6975 0.859717 38.1914 0.551193 37.5689C0.256862 36.9749 0.134192 36.3075 0.0759693 35.653C0.0184276 35.0061 0.0184227 34.2891 0.0184177 33.5695L0.0184174 33.5404V5.85369C0.0184177 4.82877 0.0911939 3.99173 0.264272 3.31818C0.439941 2.63455 0.735204 2.05731 1.22185 1.63646C1.70637 1.21745 2.27308 1.04718 2.80525 0.970472C3.30582 0.898324 3.86753 0.898384 4.40368 0.898441ZM2.20134 3.81594C2.08857 4.25481 2.01842 4.90098 2.01842 5.85369V33.5404C2.01843 34.2942 2.01923 34.9263 2.0681 35.4758C2.11708 36.0263 2.20878 36.4095 2.34322 36.6808C2.46346 36.9234 2.62688 37.0972 2.89859 37.2277C3.19729 37.3712 3.67576 37.4845 4.44863 37.4845H31.8704V10.2384L24.1407 2.89844H4.44863C3.85484 2.89844 3.43355 2.90058 3.09057 2.95002C2.76519 2.99691 2.61727 3.07384 2.53009 3.14924C2.44504 3.2228 2.31152 3.38716 2.20134 3.81594ZM23.912 12.5419H6.99067V10.5419H23.912V12.5419ZM7.48836 19.7628H22.9167V17.7628H7.48836V19.7628Z" fill="#195AB4"/>
</svg>
